<?xml version="1.0" encoding="UTF-8"?>
<mxfile host="app.diagrams.net" agent="Mozilla/5.0 (Windows NT 10.0; Win64; x64) AppleWebKit/537.36 (KHTML, like Gecko) Chrome/133.0.0.0 Safari/537.36 Edg/133.0.0.0" version="26.0.16">
  <diagram id="GbqMimOjV-0ml0N6jeWQ" name="Page-1">
    <mxGraphModel dx="1426" dy="1958" grid="1" gridSize="10" guides="1" tooltips="1" connect="1" arrows="1" fold="1" page="1" pageScale="1" pageWidth="827" pageHeight="1169" math="0" shadow="0">
      <root>
        <mxCell id="0" />
        <mxCell id="1" parent="0" />
        <mxCell id="KTTkfdUX2YzfvzxMGVPM-2" value="" style="shape=ellipse;html=1;fillColor=#000000;strokeWidth=2;verticalLabelPosition=bottom;verticalAlignment=top;perimeter=ellipsePerimeter;" parent="1" vertex="1">
          <mxGeometry x="381" width="26" height="20" as="geometry" />
        </mxCell>
        <mxCell id="KTTkfdUX2YzfvzxMGVPM-9" style="edgeStyle=orthogonalEdgeStyle;rounded=0;orthogonalLoop=1;jettySize=auto;html=1;entryX=0.5;entryY=0;entryDx=0;entryDy=0;" parent="1" target="KTTkfdUX2YzfvzxMGVPM-7" edge="1">
          <mxGeometry relative="1" as="geometry">
            <mxPoint x="394" y="290" as="sourcePoint" />
          </mxGeometry>
        </mxCell>
        <mxCell id="KTTkfdUX2YzfvzxMGVPM-12" value="" style="edgeStyle=orthogonalEdgeStyle;rounded=0;orthogonalLoop=1;jettySize=auto;html=1;" parent="1" source="KTTkfdUX2YzfvzxMGVPM-7" edge="1">
          <mxGeometry relative="1" as="geometry">
            <mxPoint x="395.090909090909" y="429" as="targetPoint" />
          </mxGeometry>
        </mxCell>
        <mxCell id="KTTkfdUX2YzfvzxMGVPM-44" value="Yes" style="edgeLabel;html=1;align=center;verticalAlign=middle;resizable=0;points=[];" parent="KTTkfdUX2YzfvzxMGVPM-12" vertex="1" connectable="0">
          <mxGeometry x="-0.1801" y="-1" relative="1" as="geometry">
            <mxPoint as="offset" />
          </mxGeometry>
        </mxCell>
        <mxCell id="KTTkfdUX2YzfvzxMGVPM-7" value="Event is listed?" style="rhombus;whiteSpace=wrap;html=1;" parent="1" vertex="1">
          <mxGeometry x="354" y="317" width="80" height="80" as="geometry" />
        </mxCell>
        <mxCell id="KTTkfdUX2YzfvzxMGVPM-10" value="No" style="text;html=1;align=center;verticalAlign=middle;resizable=0;points=[];autosize=1;strokeColor=none;fillColor=none;" parent="1" vertex="1">
          <mxGeometry x="450" y="317" width="40" height="30" as="geometry" />
        </mxCell>
        <mxCell id="KTTkfdUX2YzfvzxMGVPM-16" value="" style="edgeStyle=orthogonalEdgeStyle;rounded=0;orthogonalLoop=1;jettySize=auto;html=1;" parent="1" target="KTTkfdUX2YzfvzxMGVPM-14" edge="1">
          <mxGeometry relative="1" as="geometry">
            <mxPoint x="395.090909090909" y="439" as="sourcePoint" />
          </mxGeometry>
        </mxCell>
        <mxCell id="KTTkfdUX2YzfvzxMGVPM-17" style="edgeStyle=orthogonalEdgeStyle;rounded=0;orthogonalLoop=1;jettySize=auto;html=1;exitX=0;exitY=0.5;exitDx=0;exitDy=0;exitPerimeter=0;entryX=0.5;entryY=0;entryDx=0;entryDy=0;" parent="1" target="KTTkfdUX2YzfvzxMGVPM-13" edge="1">
          <mxGeometry relative="1" as="geometry">
            <mxPoint x="190" y="434" as="sourcePoint" />
          </mxGeometry>
        </mxCell>
        <mxCell id="KTTkfdUX2YzfvzxMGVPM-18" style="edgeStyle=orthogonalEdgeStyle;rounded=0;orthogonalLoop=1;jettySize=auto;html=1;exitX=1;exitY=0.5;exitDx=0;exitDy=0;exitPerimeter=0;" parent="1" source="KTTkfdUX2YzfvzxMGVPM-11" target="KTTkfdUX2YzfvzxMGVPM-15" edge="1">
          <mxGeometry relative="1" as="geometry" />
        </mxCell>
        <mxCell id="KTTkfdUX2YzfvzxMGVPM-11" value="fork" style="line;strokeWidth=10;html=1;" parent="1" vertex="1">
          <mxGeometry x="190" y="430" width="410" height="10" as="geometry" />
        </mxCell>
        <mxCell id="KTTkfdUX2YzfvzxMGVPM-13" value="&lt;div&gt;select arena&lt;/div&gt;" style="rounded=1;whiteSpace=wrap;html=1;strokeWidth=1;" parent="1" vertex="1">
          <mxGeometry x="190" y="489" width="120" height="60" as="geometry" />
        </mxCell>
        <mxCell id="KTTkfdUX2YzfvzxMGVPM-23" value="" style="edgeStyle=orthogonalEdgeStyle;rounded=0;orthogonalLoop=1;jettySize=auto;html=1;" parent="1" source="KTTkfdUX2YzfvzxMGVPM-14" edge="1">
          <mxGeometry relative="1" as="geometry">
            <mxPoint x="395.090909090909" y="599" as="targetPoint" />
          </mxGeometry>
        </mxCell>
        <mxCell id="KTTkfdUX2YzfvzxMGVPM-14" value="&lt;div&gt;select date&lt;/div&gt;" style="rounded=1;whiteSpace=wrap;html=1;strokeWidth=1;" parent="1" vertex="1">
          <mxGeometry x="334" y="489" width="120" height="60" as="geometry" />
        </mxCell>
        <mxCell id="KTTkfdUX2YzfvzxMGVPM-15" value="&lt;div&gt;select no. of tickets&lt;/div&gt;" style="rounded=1;whiteSpace=wrap;html=1;strokeWidth=1;" parent="1" vertex="1">
          <mxGeometry x="500" y="490" width="120" height="60" as="geometry" />
        </mxCell>
        <mxCell id="KTTkfdUX2YzfvzxMGVPM-25" value="" style="edgeStyle=orthogonalEdgeStyle;rounded=0;orthogonalLoop=1;jettySize=auto;html=1;" parent="1" target="KTTkfdUX2YzfvzxMGVPM-24" edge="1">
          <mxGeometry relative="1" as="geometry">
            <mxPoint x="395" y="609" as="sourcePoint" />
          </mxGeometry>
        </mxCell>
        <mxCell id="KTTkfdUX2YzfvzxMGVPM-20" value="join" style="line;strokeWidth=10;html=1;" parent="1" vertex="1">
          <mxGeometry x="190" y="600" width="410" height="10" as="geometry" />
        </mxCell>
        <mxCell id="KTTkfdUX2YzfvzxMGVPM-21" style="edgeStyle=orthogonalEdgeStyle;rounded=0;orthogonalLoop=1;jettySize=auto;html=1;entryX=0;entryY=0.5;entryDx=0;entryDy=0;entryPerimeter=0;" parent="1" source="KTTkfdUX2YzfvzxMGVPM-13" edge="1">
          <mxGeometry relative="1" as="geometry">
            <mxPoint x="190" y="604" as="targetPoint" />
          </mxGeometry>
        </mxCell>
        <mxCell id="KTTkfdUX2YzfvzxMGVPM-22" style="edgeStyle=orthogonalEdgeStyle;rounded=0;orthogonalLoop=1;jettySize=auto;html=1;entryX=1;entryY=0.5;entryDx=0;entryDy=0;entryPerimeter=0;" parent="1" source="KTTkfdUX2YzfvzxMGVPM-15" target="KTTkfdUX2YzfvzxMGVPM-20" edge="1">
          <mxGeometry relative="1" as="geometry" />
        </mxCell>
        <mxCell id="KTTkfdUX2YzfvzxMGVPM-27" value="" style="edgeStyle=orthogonalEdgeStyle;rounded=0;orthogonalLoop=1;jettySize=auto;html=1;" parent="1" source="KTTkfdUX2YzfvzxMGVPM-24" target="KTTkfdUX2YzfvzxMGVPM-26" edge="1">
          <mxGeometry relative="1" as="geometry" />
        </mxCell>
        <mxCell id="KTTkfdUX2YzfvzxMGVPM-24" value="Show available seating" style="rounded=1;whiteSpace=wrap;html=1;strokeWidth=1;" parent="1" vertex="1">
          <mxGeometry x="335" y="669" width="120" height="60" as="geometry" />
        </mxCell>
        <mxCell id="KTTkfdUX2YzfvzxMGVPM-35" style="edgeStyle=orthogonalEdgeStyle;rounded=0;orthogonalLoop=1;jettySize=auto;html=1;entryX=1;entryY=0.5;entryDx=0;entryDy=0;" parent="1" source="KTTkfdUX2YzfvzxMGVPM-26" target="KTTkfdUX2YzfvzxMGVPM-24" edge="1">
          <mxGeometry relative="1" as="geometry">
            <Array as="points">
              <mxPoint x="475" y="819" />
              <mxPoint x="475" y="699" />
            </Array>
          </mxGeometry>
        </mxCell>
        <mxCell id="KTTkfdUX2YzfvzxMGVPM-36" value="No" style="edgeLabel;html=1;align=center;verticalAlign=middle;resizable=0;points=[];" parent="KTTkfdUX2YzfvzxMGVPM-35" vertex="1" connectable="0">
          <mxGeometry x="-0.8575" y="2" relative="1" as="geometry">
            <mxPoint as="offset" />
          </mxGeometry>
        </mxCell>
        <mxCell id="KTTkfdUX2YzfvzxMGVPM-38" value="" style="edgeStyle=orthogonalEdgeStyle;rounded=0;orthogonalLoop=1;jettySize=auto;html=1;" parent="1" source="KTTkfdUX2YzfvzxMGVPM-26" target="KTTkfdUX2YzfvzxMGVPM-37" edge="1">
          <mxGeometry relative="1" as="geometry" />
        </mxCell>
        <mxCell id="KTTkfdUX2YzfvzxMGVPM-39" value="Yes" style="edgeLabel;html=1;align=center;verticalAlign=middle;resizable=0;points=[];" parent="KTTkfdUX2YzfvzxMGVPM-38" vertex="1" connectable="0">
          <mxGeometry x="-0.5622" y="-2" relative="1" as="geometry">
            <mxPoint as="offset" />
          </mxGeometry>
        </mxCell>
        <mxCell id="KTTkfdUX2YzfvzxMGVPM-26" value="User selects seat?" style="rhombus;whiteSpace=wrap;html=1;" parent="1" vertex="1">
          <mxGeometry x="347.5" y="769" width="95" height="100" as="geometry" />
        </mxCell>
        <mxCell id="KTTkfdUX2YzfvzxMGVPM-42" style="edgeStyle=orthogonalEdgeStyle;rounded=0;orthogonalLoop=1;jettySize=auto;html=1;exitX=0.5;exitY=1;exitDx=0;exitDy=0;entryX=0.5;entryY=0;entryDx=0;entryDy=0;" parent="1" source="KTTkfdUX2YzfvzxMGVPM-29" target="KTTkfdUX2YzfvzxMGVPM-41" edge="1">
          <mxGeometry relative="1" as="geometry" />
        </mxCell>
        <mxCell id="KTTkfdUX2YzfvzxMGVPM-29" value="&lt;div&gt;add tickets to basket&lt;/div&gt;" style="rounded=1;whiteSpace=wrap;html=1;strokeWidth=1;" parent="1" vertex="1">
          <mxGeometry x="335" y="1007" width="120" height="60" as="geometry" />
        </mxCell>
        <mxCell id="KTTkfdUX2YzfvzxMGVPM-34" value="" style="edgeStyle=orthogonalEdgeStyle;rounded=0;orthogonalLoop=1;jettySize=auto;html=1;" parent="1" source="KTTkfdUX2YzfvzxMGVPM-30" target="KTTkfdUX2YzfvzxMGVPM-32" edge="1">
          <mxGeometry relative="1" as="geometry" />
        </mxCell>
        <mxCell id="KTTkfdUX2YzfvzxMGVPM-30" value="Checkout" style="rounded=1;whiteSpace=wrap;html=1;strokeWidth=1;" parent="1" vertex="1">
          <mxGeometry x="335" y="1200" width="120" height="60" as="geometry" />
        </mxCell>
        <mxCell id="KTTkfdUX2YzfvzxMGVPM-32" value="" style="html=1;shape=mxgraph.sysml.flowFinal;strokeWidth=2;verticalLabelPosition=bottom;verticalAlignment=top;" parent="1" vertex="1">
          <mxGeometry x="375" y="1290" width="40" height="40" as="geometry" />
        </mxCell>
        <mxCell id="KTTkfdUX2YzfvzxMGVPM-40" style="edgeStyle=orthogonalEdgeStyle;rounded=0;orthogonalLoop=1;jettySize=auto;html=1;exitX=0.5;exitY=1;exitDx=0;exitDy=0;" parent="1" source="KTTkfdUX2YzfvzxMGVPM-37" target="KTTkfdUX2YzfvzxMGVPM-29" edge="1">
          <mxGeometry relative="1" as="geometry" />
        </mxCell>
        <mxCell id="KTTkfdUX2YzfvzxMGVPM-37" value="Validate Seat availability&amp;nbsp;" style="rounded=1;whiteSpace=wrap;html=1;strokeWidth=1;" parent="1" vertex="1">
          <mxGeometry x="335" y="918" width="120" height="60" as="geometry" />
        </mxCell>
        <mxCell id="KTTkfdUX2YzfvzxMGVPM-43" value="" style="edgeStyle=orthogonalEdgeStyle;rounded=0;orthogonalLoop=1;jettySize=auto;html=1;" parent="1" source="KTTkfdUX2YzfvzxMGVPM-41" target="KTTkfdUX2YzfvzxMGVPM-30" edge="1">
          <mxGeometry relative="1" as="geometry" />
        </mxCell>
        <mxCell id="KTTkfdUX2YzfvzxMGVPM-41" value="Lock selected seats" style="rounded=1;whiteSpace=wrap;html=1;strokeWidth=1;" parent="1" vertex="1">
          <mxGeometry x="335" y="1100" width="120" height="60" as="geometry" />
        </mxCell>
        <mxCell id="FPTDocibYZF9fdpe-iaN-11" value="" style="endArrow=classic;html=1;rounded=0;exitX=0.484;exitY=0.868;exitDx=0;exitDy=0;exitPerimeter=0;" parent="1" source="FPTDocibYZF9fdpe-iaN-15" edge="1">
          <mxGeometry width="50" height="50" relative="1" as="geometry">
            <mxPoint x="395.12625" y="139.76" as="sourcePoint" />
            <mxPoint x="395" y="170" as="targetPoint" />
          </mxGeometry>
        </mxCell>
        <mxCell id="FPTDocibYZF9fdpe-iaN-12" value="" style="endArrow=classic;html=1;rounded=0;exitX=0.5;exitY=1;exitDx=0;exitDy=0;exitPerimeter=0;entryX=0.5;entryY=0;entryDx=0;entryDy=0;" parent="1" target="FPTDocibYZF9fdpe-iaN-13" edge="1">
          <mxGeometry width="50" height="50" relative="1" as="geometry">
            <mxPoint x="397.5" y="210" as="sourcePoint" />
            <mxPoint x="395" y="250" as="targetPoint" />
          </mxGeometry>
        </mxCell>
        <mxCell id="FPTDocibYZF9fdpe-iaN-13" value="&lt;div&gt;search validated&lt;/div&gt;" style="rounded=1;whiteSpace=wrap;html=1;strokeWidth=1;" parent="1" vertex="1">
          <mxGeometry x="342.5" y="250" width="105" height="40" as="geometry" />
        </mxCell>
        <mxCell id="FPTDocibYZF9fdpe-iaN-29" style="edgeStyle=orthogonalEdgeStyle;rounded=0;orthogonalLoop=1;jettySize=auto;html=1;" parent="1" source="FPTDocibYZF9fdpe-iaN-14" edge="1">
          <mxGeometry relative="1" as="geometry">
            <mxPoint x="395" y="100" as="targetPoint" />
          </mxGeometry>
        </mxCell>
        <mxCell id="FPTDocibYZF9fdpe-iaN-14" value="User search for events" style="rounded=1;whiteSpace=wrap;html=1;strokeWidth=1;" parent="1" vertex="1">
          <mxGeometry x="325" y="40" width="140" height="30" as="geometry" />
        </mxCell>
        <mxCell id="FPTDocibYZF9fdpe-iaN-15" value="send search in database" style="html=1;shape=mxgraph.infographic.ribbonSimple;notch1=0;notch2=20;align=center;verticalAlign=middle;fontSize=14;fontStyle=0;fillColor=#FFFFFF;whiteSpace=wrap;" parent="1" vertex="1">
          <mxGeometry x="310" y="100" width="180" height="30" as="geometry" />
        </mxCell>
        <mxCell id="FPTDocibYZF9fdpe-iaN-16" value="receive search validation" style="html=1;shape=mxgraph.sysml.accEvent;strokeWidth=2;whiteSpace=wrap;align=center;" parent="1" vertex="1">
          <mxGeometry x="317.5" y="170" width="155" height="40" as="geometry" />
        </mxCell>
        <mxCell id="FPTDocibYZF9fdpe-iaN-19" value="" style="endArrow=classic;html=1;rounded=0;exitX=0.5;exitY=1;exitDx=0;exitDy=0;entryX=0.5;entryY=0;entryDx=0;entryDy=0;" parent="1" source="KTTkfdUX2YzfvzxMGVPM-2" target="FPTDocibYZF9fdpe-iaN-14" edge="1">
          <mxGeometry width="50" height="50" relative="1" as="geometry">
            <mxPoint x="380" y="220" as="sourcePoint" />
            <mxPoint x="430" y="170" as="targetPoint" />
          </mxGeometry>
        </mxCell>
        <mxCell id="FPTDocibYZF9fdpe-iaN-23" value="" style="endArrow=none;html=1;rounded=0;exitX=1;exitY=0.5;exitDx=0;exitDy=0;" parent="1" source="KTTkfdUX2YzfvzxMGVPM-7" edge="1">
          <mxGeometry width="50" height="50" relative="1" as="geometry">
            <mxPoint x="380" y="300" as="sourcePoint" />
            <mxPoint x="520" y="50" as="targetPoint" />
            <Array as="points">
              <mxPoint x="520" y="360" />
            </Array>
          </mxGeometry>
        </mxCell>
        <mxCell id="FPTDocibYZF9fdpe-iaN-24" value="" style="endArrow=classic;html=1;rounded=0;entryX=1;entryY=0.25;entryDx=0;entryDy=0;" parent="1" target="FPTDocibYZF9fdpe-iaN-14" edge="1">
          <mxGeometry width="50" height="50" relative="1" as="geometry">
            <mxPoint x="520" y="50" as="sourcePoint" />
            <mxPoint x="430" y="250" as="targetPoint" />
          </mxGeometry>
        </mxCell>
      </root>
    </mxGraphModel>
  </diagram>
</mxfile>
